<svg width="214" height="80" fill="none" xmlns="http://www.w3.org/2000/svg"><g clip-path="url(#clip0)" fill="#fff"><path d="M102.863 24.328v27.025h6.157v-6.8l4.765 6.8h7.417l-6.793-9.65 6.584-9.223h-7.419l-4.554 6.383V24.328h-6.157zm80.876 13.838v13.033h-6.069v-12.89c0-1.315-1.116-2.386-2.483-2.386-1.376 0-2.492 1.071-2.492 2.386v12.89h-6.07v-27.09h6.07v8.773a7.11 7.11 0 014.154-1.33c3.807 0 6.89 2.959 6.89 6.614zm-91.601-5.882v.935a10.833 10.833 0 00-5.72-1.62c-5.833 0-10.563 4.54-10.563 10.14 0 5.6 4.73 10.14 10.563 10.14 2.111 0 4.07-.6 5.72-1.623v.987h6.066v-18.96h-6.066zm-4.832 14.393c-2.973 0-5.381-2.315-5.381-5.167 0-2.855 2.408-5.166 5.382-5.166 2.97 0 5.381 2.311 5.381 5.166 0 2.852-2.41 5.167-5.382 5.167z"/><path d="M135.971 32.284v.935a10.831 10.831 0 00-5.719-1.62c-5.834 0-10.564 4.54-10.564 10.14 0 5.6 4.73 10.14 10.564 10.14 2.11 0 4.07-.6 5.719-1.623v.987h6.066v-18.96h-6.066zm-4.832 14.393c-2.973 0-5.381-2.315-5.381-5.167 0-2.855 2.408-5.166 5.381-5.166 2.971 0 5.382 2.311 5.382 5.166 0 2.852-2.411 5.167-5.382 5.167zm19.759-1.595c.027.388.134.719.318.983.193.278.445.507.75.68.329.187.713.325 1.147.413.456.092.932.14 1.418.14 1.094 0 1.918-.16 2.451-.471.448-.265.65-.546.65-.916a.782.782 0 00-.112-.43c-.042-.068-.164-.21-.488-.383-.305-.164-.727-.321-1.256-.464a25.721 25.721 0 00-2.145-.467 22.85 22.85 0 01-3.187-.835c-.982-.343-1.84-.767-2.547-1.258-.734-.511-1.317-1.109-1.734-1.783-.432-.697-.652-1.504-.652-2.4 0-.86.218-1.693.645-2.474.421-.771 1.032-1.457 1.816-2.03.766-.565 1.705-1.017 2.795-1.346 1.076-.323 2.301-.488 3.64-.488 1.397 0 2.671.16 3.791.476 1.135.322 2.117.774 2.916 1.343.816.583 1.451 1.29 1.885 2.1.439.815.66 1.707.66 2.657h-6.24c0-.533-.214-.952-.673-1.32-.484-.384-1.27-.58-2.339-.58-1.004 0-1.755.162-2.227.483-.414.281-.605.583-.605.958 0 .175.037.336.112.485.064.127.198.255.399.382.248.154.61.302 1.073.438.492.145 1.13.273 1.893.378 1.191.188 2.307.429 3.326.721 1.052.3 1.975.696 2.746 1.174.801.498 1.438 1.117 1.898 1.836.471.738.708 1.621.708 2.621a4.96 4.96 0 01-.699 2.57c-.456.766-1.106 1.436-1.937 1.985-.809.538-1.793.962-2.926 1.257-1.117.293-2.377.44-3.743.44-1.511 0-2.87-.194-4.041-.578-1.175-.388-2.177-.902-2.981-1.533-.816-.64-1.443-1.381-1.868-2.203-.428-.826-.644-1.674-.644-2.519l6.007-.042zM43.984 23.363l19.55 33.781 6.51-11.261-13.03-22.52h-13.03z"/><path d="M43.984 46.527l6.761 10.617h13.508l-6.751-10.617H43.984z"/><path d="M38.194 33.98l-6.757 11.582L38.2 57.145 51.707 33.98H38.194z"/></g><defs><clipPath id="clip0"><path fill="#fff" transform="translate(31.438 23.363)" d="M0 0h152.5v33.782H0z"/></clipPath></defs></svg>